{"glyphs":{":":{"x_min":0,"x_max":600,"ha":600,"o":"m 375 376 q 375 348 355 329 q 335 310 300 310 q 265 310 245 329 q 225 348 225 376 q 225 405 245 424 q 265 443 300 443 q 335 443 355 424 q 375 405 375 376 z m 376 49 q 376 21 356 1 q 336 -18 301 -18 q 266 -18 246 1 q 226 21 226 49 q 226 77 246 96 q 266 115 301 115 q 336 115 356 96 q 376 77 376 49 z"},"$":{"x_min":0,"x_max":600,"ha":600,"o":"m 350 601 q 385 597 418 582 q 426 586 433 588 q 440 590 447 590 q 469 590 483 575 q 497 560 497 523 l 497 491 q 497 455 483 440 q 469 424 447 424 q 427 424 413 438 q 399 451 397 476 q 362 504 309 504 q 254 504 228 484 q 203 464 203 440 q 203 422 218 407 q 234 393 284 382 l 350 368 q 434 351 471 317 q 519 273 519 202 q 519 140 475 91 q 431 42 350 27 l 350 -58 q 350 -94 336 -110 q 322 -125 300 -125 q 278 -125 264 -110 q 250 -94 250 -58 l 250 27 q 211 35 172 53 q 151 35 133 35 q 109 35 95 50 q 81 65 81 102 l 81 165 q 81 201 95 216 q 109 231 131 231 q 149 231 162 222 q 174 212 179 192 q 185 171 194 161 q 209 146 239 135 q 269 125 301 125 q 356 125 394 153 q 418 172 418 203 q 418 228 402 244 q 385 259 332 270 l 257 285 q 177 301 140 342 q 103 384 103 442 q 103 500 143 544 q 183 589 250 601 l 250 628 q 250 664 264 679 q 278 695 300 695 q 322 695 336 679 q 350 664 350 628 z"},"?":{"x_min":0,"x_max":600,"ha":600,"o":"m 351 231 q 348 203 335 190 q 321 177 301 177 q 279 177 265 192 q 251 208 251 244 l 251 300 q 370 345 394 370 q 418 394 418 419 q 418 455 390 481 q 361 507 309 507 q 254 507 203 481 l 203 467 q 203 431 189 416 q 175 400 152 400 q 130 400 116 416 q 103 431 103 467 l 103 547 q 179 583 222 595 q 264 607 310 607 q 404 607 461 552 q 519 498 519 415 q 519 356 484 315 q 450 274 351 231 z m 372 38 q 372 15 356 0 q 339 -14 301 -14 q 263 -14 247 0 q 230 15 230 38 q 230 61 247 75 q 263 89 301 89 q 339 89 356 75 q 372 61 372 38 z"},"<":{"x_min":0,"x_max":600,"ha":600,"o":"m 195 285 l 520 105 q 544 92 552 81 q 560 70 560 54 q 560 33 545 17 q 530 2 510 2 q 497 2 470 17 l -13 285 l 470 554 q 497 568 509 568 q 530 568 545 553 q 560 538 560 517 q 560 500 552 489 q 544 479 520 465 z"},"'":{"x_min":0,"x_max":600,"ha":600,"o":"m 235 611 l 364 611 l 332 354 q 330 333 322 325 q 313 318 300 318 q 288 318 280 325 q 272 333 270 353 z"},"=":{"x_min":0,"x_max":600,"ha":600,"o":"m 515 329 l 87 329 q 51 329 35 343 q 20 357 20 379 q 20 401 35 415 q 51 429 87 429 l 515 429 q 551 429 566 415 q 582 401 582 379 q 582 357 566 343 q 551 329 515 329 z m 515 141 l 87 141 q 51 141 35 154 q 20 168 20 190 q 20 213 35 227 q 51 241 87 241 l 515 241 q 551 241 566 227 q 582 213 582 190 q 582 168 566 154 q 551 141 515 141 z"},"a":{"x_min":0,"x_max":600,"ha":600,"o":"m 390 0 l 390 23 q 353 3 307 -7 q 262 -17 225 -17 q 144 -17 94 26 q 43 69 43 121 q 43 184 108 238 q 172 292 285 292 q 331 292 390 282 l 390 306 q 390 328 371 342 q 352 356 297 356 q 253 356 182 339 q 156 333 141 333 q 121 333 107 347 q 93 361 93 384 q 93 396 98 406 q 103 415 112 421 q 121 426 148 434 q 186 444 224 450 q 263 457 294 457 q 387 457 439 416 q 490 376 490 306 l 490 100 l 507 100 q 543 100 559 86 q 574 72 574 50 q 574 28 559 14 q 543 0 507 0 z m 390 179 q 330 191 279 191 q 218 191 174 161 q 147 142 147 123 q 147 108 160 100 q 185 83 227 83 q 263 83 309 98 q 354 112 390 136 z"},"L":{"x_min":0,"x_max":600,"ha":600,"o":"m 258 492 l 258 100 l 474 100 l 474 195 q 474 231 488 246 q 502 262 524 262 q 546 262 560 246 q 574 231 574 195 l 574 0 l 100 0 q 64 0 49 14 q 33 28 33 50 q 33 72 49 86 q 64 100 100 100 l 158 100 l 158 492 l 100 492 q 64 492 49 506 q 33 520 33 542 q 33 564 49 578 q 64 592 100 592 l 317 592 q 353 592 368 578 q 384 564 384 542 q 384 520 368 506 q 353 492 317 492 z"},"3":{"x_min":0,"x_max":600,"ha":600,"o":"m 443 334 q 487 304 509 264 q 531 225 531 175 q 531 122 502 77 q 473 32 418 9 q 363 -15 273 -15 q 157 -15 99 21 q 66 42 66 70 q 66 92 80 107 q 95 122 115 122 q 129 122 145 112 q 166 97 185 92 q 214 85 266 85 q 353 85 392 108 q 431 131 431 172 q 431 203 408 232 q 386 260 348 276 q 326 285 273 288 q 249 290 235 303 q 222 317 222 338 q 222 359 236 374 q 251 389 273 389 q 323 389 327 389 q 346 391 366 402 q 385 413 397 431 q 409 450 409 470 q 409 502 381 525 q 353 548 297 548 q 225 548 187 506 q 175 494 168 491 q 158 485 146 485 q 125 485 110 500 q 96 515 96 536 q 96 570 141 602 q 206 648 304 648 q 397 648 453 595 q 509 542 509 468 q 509 430 493 396 q 476 363 443 334 z"},";":{"x_min":0,"x_max":600,"ha":600,"o":"m 422 374 q 422 346 402 327 q 382 308 347 308 q 312 308 292 327 q 272 346 272 375 q 272 402 292 422 q 312 441 347 441 q 382 441 402 422 q 422 403 422 374 z m 267 146 l 395 146 l 253 -83 q 240 -106 227 -106 q 214 -106 206 -99 q 197 -91 197 -83 q 197 -77 201 -66 z"},"J":{"x_min":0,"x_max":600,"ha":600,"o":"m 488 492 l 488 189 q 488 132 469 98 q 440 46 385 16 q 329 -15 268 -15 q 189 -15 54 52 l 54 216 q 54 252 68 268 q 82 283 104 283 q 126 283 140 268 q 154 252 154 216 l 154 118 q 223 85 271 85 q 297 85 325 97 q 353 109 367 126 q 381 143 386 159 q 388 167 388 201 l 388 492 l 267 492 q 230 492 215 506 q 200 520 200 542 q 200 564 215 578 q 230 592 267 592 l 547 592 q 583 592 598 578 q 614 564 614 542 q 614 520 598 506 q 583 492 547 492 z"},"V":{"x_min":0,"x_max":600,"ha":600,"o":"m 300 146 l 445 492 l 422 492 q 386 492 370 506 q 355 520 355 542 q 355 564 370 578 q 386 592 422 592 l 556 592 q 592 592 608 578 q 623 564 623 542 q 623 515 600 500 q 588 492 554 492 l 348 0 l 252 0 l 47 492 q 12 492 0 500 q -23 515 -23 542 q -23 564 -8 578 q 8 592 44 592 l 179 592 q 215 592 230 578 q 246 564 246 542 q 246 520 230 506 q 215 492 179 492 l 156 492 z"},"\"":{"x_min":0,"x_max":600,"ha":600,"o":"m 129 604 l 258 604 l 226 365 q 224 346 216 339 q 208 332 195 332 q 182 332 174 339 q 166 346 164 364 z m 337 604 l 466 604 l 435 365 q 432 346 424 339 q 417 332 403 332 q 390 332 382 339 q 375 346 372 364 z"},"7":{"x_min":0,"x_max":600,"ha":600,"o":"m 403 532 l 174 532 q 172 502 159 490 q 146 477 125 477 q 102 477 88 492 q 74 507 74 543 l 74 632 l 509 632 l 509 532 l 347 49 q 336 19 324 9 q 312 -1 294 -1 q 273 -1 258 14 q 243 28 243 47 q 243 58 251 82 z"},"S":{"x_min":0,"x_max":600,"ha":600,"o":"m 154 25 q 141 10 133 5 q 125 1 113 1 q 90 1 76 16 q 62 32 62 67 l 62 135 q 62 171 76 186 q 90 202 113 202 q 130 202 142 192 q 154 183 161 161 q 167 140 174 132 q 188 117 224 101 q 260 85 303 85 q 370 85 413 117 q 440 136 440 164 q 440 182 427 198 q 414 215 384 226 q 365 233 297 246 q 215 261 173 282 q 131 304 106 343 q 82 382 82 427 q 82 499 142 553 q 202 607 298 607 q 337 607 370 598 q 403 590 430 572 q 449 591 469 591 q 491 591 505 576 q 519 561 519 525 l 519 450 q 519 414 505 398 q 491 383 469 383 q 450 383 437 394 q 426 402 420 427 q 415 452 407 463 q 393 481 364 494 q 336 507 299 507 q 245 507 213 482 q 182 457 182 429 q 182 411 195 393 q 208 376 232 366 q 249 359 326 344 q 403 329 444 311 q 485 293 513 254 q 540 216 540 163 q 540 88 488 44 q 418 -15 311 -15 q 270 -15 230 -5 q 191 5 154 25 z"},"}":{"x_min":0,"x_max":600,"ha":600,"o":"m 277 243 q 260 263 254 281 q 247 300 247 333 l 247 492 q 247 512 240 521 q 232 529 211 531 q 191 533 178 547 q 165 562 165 582 q 165 603 179 618 q 194 632 217 632 q 250 632 280 615 q 311 598 333 559 q 347 533 347 500 l 347 333 q 347 312 354 304 q 361 296 383 293 q 406 291 418 278 q 430 265 430 243 q 430 221 418 208 q 406 195 383 192 q 360 189 355 183 q 347 173 347 153 l 347 -23 q 347 -78 308 -117 q 269 -156 218 -156 q 194 -156 179 -142 q 165 -127 165 -105 q 165 -85 178 -71 q 191 -57 212 -55 q 233 -53 238 -46 q 247 -36 247 -16 l 247 143 q 247 185 253 204 q 259 222 277 243 z"},"Z":{"x_min":0,"x_max":600,"ha":600,"o":"m 202 100 l 429 100 l 429 174 q 429 210 443 226 q 457 241 479 241 q 501 241 515 226 q 529 210 529 174 l 529 0 l 74 0 l 74 100 l 379 492 l 194 492 l 194 420 q 194 384 181 368 q 167 353 145 353 q 122 353 108 368 q 94 384 94 420 l 94 592 l 508 592 l 508 494 z"},"x":{"x_min":0,"x_max":600,"ha":600,"o":"m 375 230 l 527 100 q 554 99 568 85 q 582 71 582 50 q 582 28 566 14 q 551 0 515 0 l 401 0 q 365 0 349 14 q 334 28 334 51 q 334 68 345 82 q 356 95 375 100 l 300 165 l 224 100 q 247 94 257 82 q 267 70 267 51 q 267 28 252 14 q 237 0 201 0 l 88 0 q 52 0 36 14 q 21 28 21 50 q 21 71 35 85 q 48 99 76 100 l 224 231 l 93 343 q 67 345 53 359 q 40 373 40 394 q 40 416 55 429 q 71 443 107 443 l 201 443 q 237 443 252 429 q 268 416 268 394 q 268 365 240 347 l 301 297 l 360 348 q 333 367 333 392 q 333 416 349 429 q 364 443 400 443 l 493 443 q 529 443 545 429 q 560 416 560 393 q 560 373 547 359 q 533 345 507 343 z"},")":{"x_min":0,"x_max":600,"ha":600,"o":"m 343 243 q 343 158 314 70 q 293 5 250 -73 q 218 -130 203 -143 q 188 -156 169 -156 q 147 -156 133 -142 q 118 -127 118 -106 q 118 -92 130 -73 q 183 14 207 89 q 231 165 231 243 q 231 321 207 396 q 183 472 130 559 q 118 578 118 592 q 118 613 133 627 q 147 642 169 642 q 187 642 201 630 q 220 614 252 554 q 299 467 316 412 q 343 325 343 243 z"},"&":{"x_min":0,"x_max":600,"ha":600,"o":"m 404 199 l 429 284 l 480 284 q 511 284 523 276 q 546 261 546 233 q 546 212 534 198 q 521 185 504 184 q 492 131 473 100 q 513 100 524 93 q 548 78 548 50 q 548 28 532 14 q 517 0 481 0 l 421 0 l 410 16 q 388 0 368 -6 q 338 -15 295 -15 q 207 -15 158 31 q 110 76 110 145 q 110 192 134 236 q 158 279 208 308 q 187 344 180 364 q 173 383 173 406 q 173 466 219 512 q 265 558 328 558 q 345 558 362 553 q 380 549 398 541 q 416 548 425 548 q 445 548 460 533 q 475 519 475 498 q 475 481 467 470 q 458 459 434 446 l 392 423 q 368 445 354 452 q 342 458 328 458 q 305 458 289 442 q 273 427 273 407 q 273 390 302 348 z m 266 224 q 210 198 210 146 q 210 118 229 102 q 248 85 295 85 q 326 85 351 100 z"},"_":{"x_min":0,"x_max":600,"ha":600,"o":"m 577 -300 l 27 -300 q -9 -300 -24 -287 q -40 -273 -40 -250 q -40 -228 -24 -214 q -9 -200 27 -200 l 577 -200 q 613 -200 628 -214 q 644 -228 644 -250 q 644 -272 628 -286 q 613 -300 577 -300 z"},"v":{"x_min":0,"x_max":600,"ha":600,"o":"m 301 122 l 409 343 q 369 343 357 350 q 333 365 333 394 q 333 416 348 429 q 364 443 400 443 l 537 443 q 573 443 589 429 q 604 416 604 393 q 604 371 589 357 q 573 343 537 343 l 521 343 l 353 0 l 249 0 l 81 343 l 67 343 q 31 343 15 357 q 0 371 0 394 q 0 416 15 429 q 31 443 67 443 l 201 443 q 237 443 252 429 q 268 416 268 393 q 268 365 244 351 q 232 343 192 343 z"},"O":{"x_min":0,"x_max":600,"ha":600,"o":"m 581 296 q 581 163 496 74 q 412 -15 300 -15 q 200 -15 120 59 q 20 150 20 296 q 20 441 120 533 q 200 607 300 607 q 412 607 496 518 q 581 430 581 296 z m 481 296 q 481 387 426 447 q 371 507 300 507 q 230 507 175 447 q 120 387 120 296 q 120 205 175 145 q 230 85 300 85 q 371 85 426 145 q 481 205 481 296 z"},"(":{"x_min":0,"x_max":600,"ha":600,"o":"m 264 243 q 264 329 292 416 q 313 480 357 560 q 389 616 404 629 q 419 642 438 642 q 459 642 474 627 q 489 613 489 592 q 489 578 477 559 q 424 472 400 396 q 376 321 376 243 q 376 165 400 89 q 424 14 477 -73 q 489 -92 489 -106 q 489 -127 474 -142 q 459 -156 438 -156 q 420 -156 406 -145 q 387 -127 354 -68 q 308 19 291 75 q 264 161 264 243 z"},"C":{"x_min":0,"x_max":600,"ha":600,"o":"m 457 566 q 466 579 477 585 q 488 592 501 592 q 523 592 537 577 q 551 562 551 525 l 551 440 q 551 404 537 389 q 523 374 501 374 q 481 374 469 385 q 457 396 451 427 q 447 447 437 458 q 417 480 381 494 q 345 507 309 507 q 264 507 227 487 q 189 468 160 424 q 131 380 131 319 l 131 254 q 131 182 184 134 q 236 85 330 85 q 385 85 424 101 q 446 109 472 135 q 487 151 496 156 q 505 160 516 160 q 536 160 551 145 q 566 130 566 109 q 566 89 546 65 q 516 31 469 12 q 406 -15 330 -15 q 241 -15 170 22 q 112 51 72 115 q 31 178 31 252 l 31 320 q 31 398 68 466 q 104 534 168 570 q 233 607 305 607 q 349 607 386 597 q 424 587 457 566 z"},"W":{"x_min":0,"x_max":600,"ha":600,"o":"m 300 284 l 208 0 l 95 0 l 36 492 q 13 495 1 508 q -11 521 -11 541 q -11 564 5 578 q 20 592 56 592 l 189 592 q 226 592 241 578 q 256 564 256 542 q 256 520 241 506 q 226 492 189 492 l 137 492 l 170 212 l 249 445 l 353 445 l 431 212 l 464 492 l 412 492 q 376 492 361 506 q 345 520 345 542 q 345 564 361 578 q 376 592 412 592 l 545 592 q 581 592 596 578 q 612 564 612 542 q 612 523 600 509 q 587 496 564 492 l 507 0 l 396 0 z"},"A":{"x_min":0,"x_max":600,"ha":600,"o":"m 422 161 l 179 161 l 155 100 l 179 100 q 215 100 231 86 q 246 72 246 50 q 246 28 231 14 q 215 0 179 0 l 44 0 q 8 0 -7 14 q -22 28 -22 50 q -22 73 -6 87 q 10 101 47 100 l 204 492 l 139 492 q 103 492 87 506 q 72 520 72 542 q 72 564 87 578 q 103 592 139 592 l 355 592 l 554 100 q 589 100 601 92 q 623 76 623 50 q 623 28 608 14 q 593 0 557 0 l 422 0 q 386 0 370 14 q 355 28 355 50 q 355 72 370 86 q 386 100 422 100 l 446 100 z m 381 261 l 300 459 l 219 261 z"},"f":{"x_min":0,"x_max":600,"ha":600,"o":"m 299 343 l 299 100 l 442 100 q 478 100 493 86 q 509 72 509 50 q 509 28 493 14 q 478 0 442 0 l 140 0 q 104 0 88 14 q 73 28 73 50 q 73 72 88 86 q 104 100 140 100 l 199 100 l 199 343 l 151 343 q 115 343 100 357 q 84 371 84 394 q 84 416 100 429 q 115 443 151 443 l 199 443 l 199 481 q 199 547 248 590 q 297 633 391 633 q 432 633 487 626 q 541 618 556 604 q 572 591 572 569 q 572 546 558 532 q 544 518 524 518 q 515 518 497 521 q 435 533 387 533 q 337 533 318 518 q 299 503 299 481 l 299 443 l 454 443 q 490 443 505 429 q 521 416 521 393 q 521 371 505 357 q 490 343 454 343 z"},"Q":{"x_min":0,"x_max":600,"ha":600,"o":"m 323 -14 l 320 -18 q 372 -18 417 -39 q 436 -48 448 -48 q 466 -48 491 -31 q 517 -15 531 -15 q 552 -15 567 -29 q 581 -43 581 -65 q 581 -91 554 -110 q 501 -148 447 -148 q 420 -148 392 -137 q 347 -120 321 -120 q 278 -120 191 -142 q 173 -146 163 -146 q 144 -146 130 -131 q 115 -116 115 -94 q 115 -74 135 -55 l 199 7 q 120 41 70 118 q 20 195 20 296 q 20 441 120 533 q 200 607 300 607 q 400 607 480 533 q 581 441 581 296 q 581 171 505 84 q 429 -3 323 -14 z m 480 296 q 480 387 425 447 q 370 507 300 507 q 230 507 175 447 q 120 387 120 296 q 120 205 175 145 q 230 85 300 85 q 370 85 425 145 q 480 205 480 296 z"},"w":{"x_min":0,"x_max":600,"ha":600,"o":"m 301 185 l 231 0 l 137 0 l 53 343 q 26 345 12 359 q -2 373 -2 394 q -2 416 13 429 q 29 443 65 443 l 158 443 q 194 443 210 429 q 225 416 225 393 q 225 371 208 355 q 194 343 156 343 l 194 185 l 256 347 l 345 347 l 407 185 l 446 343 q 409 343 397 351 q 374 366 374 394 q 374 416 389 429 q 405 443 441 443 l 535 443 q 571 443 587 429 q 602 416 602 393 q 602 373 589 359 q 575 345 549 343 l 467 0 l 374 0 z"},"-":{"x_min":0,"x_max":600,"ha":600,"o":"m 510 238 l 92 238 l 92 330 l 510 330 z"},"E":{"x_min":0,"x_max":600,"ha":600,"o":"m 197 247 l 197 100 l 453 100 l 453 154 q 453 190 467 206 q 480 221 503 221 q 525 221 539 206 q 553 190 553 154 l 553 0 l 82 0 q 45 0 30 14 q 15 28 15 50 q 15 72 30 86 q 46 100 82 100 l 97 100 l 97 492 l 82 492 q 45 492 30 506 q 15 520 15 542 q 15 564 30 578 q 45 592 82 592 l 531 592 l 531 439 q 531 404 517 388 q 503 373 481 373 q 458 373 445 388 q 431 403 431 439 l 431 492 l 197 492 l 197 347 l 285 347 q 285 386 292 397 q 308 421 335 421 q 357 421 371 406 q 385 391 385 354 l 385 239 q 385 207 377 195 q 362 172 335 172 q 308 172 292 196 q 285 208 285 247 z"},"s":{"x_min":0,"x_max":600,"ha":600,"o":"m 408 326 q 384 341 357 349 q 330 356 301 356 q 243 356 208 337 q 193 329 193 319 q 193 308 214 297 q 229 290 284 282 q 383 269 422 255 q 474 237 501 201 q 529 166 529 126 q 529 72 482 36 q 414 -16 306 -16 q 262 -16 225 -9 q 188 -1 158 14 q 150 7 142 4 q 134 0 125 0 q 102 0 88 16 q 74 31 74 67 l 74 101 q 74 137 88 153 q 102 168 124 168 q 142 168 154 158 q 167 148 173 124 q 196 104 229 94 q 261 84 303 84 q 372 84 410 105 q 428 116 428 128 q 428 147 402 160 q 376 173 295 182 q 174 194 134 230 q 93 266 93 318 q 93 372 139 408 q 200 457 300 457 q 334 457 366 450 q 398 443 428 430 q 437 437 445 440 q 453 443 460 443 q 480 443 494 428 q 508 413 508 376 l 508 352 q 508 319 500 308 q 484 285 458 285 q 439 285 426 296 q 412 308 408 326 z"},">":{"x_min":0,"x_max":600,"ha":600,"o":"m 406 285 l 82 465 q 57 479 49 489 q 41 500 41 517 q 41 538 56 553 q 71 568 92 568 q 104 568 131 554 l 614 285 l 131 17 q 104 2 92 2 q 71 2 56 17 q 41 32 41 54 q 41 70 49 81 q 57 92 82 105 z"},"l":{"x_min":0,"x_max":600,"ha":600,"o":"m 350 633 l 350 100 l 470 100 q 506 100 522 86 q 537 72 537 50 q 537 28 522 14 q 506 0 470 0 l 130 0 q 94 0 78 14 q 63 28 63 50 q 63 72 78 86 q 94 100 130 100 l 250 100 l 250 533 l 169 533 q 134 533 118 547 q 103 561 103 583 q 103 605 118 619 q 133 633 169 633 z"},"8":{"x_min":0,"x_max":600,"ha":600,"o":"m 442 320 q 480 290 500 252 q 519 214 519 169 q 519 119 494 76 q 470 34 417 10 q 364 -15 300 -15 q 235 -15 184 10 q 132 34 107 77 q 83 119 83 169 q 83 214 102 252 q 121 290 160 320 q 126 351 109 386 q 92 421 92 460 q 92 537 150 593 q 209 648 301 648 q 393 648 451 593 q 510 537 510 460 q 510 421 493 386 q 476 351 442 320 z m 407 458 q 407 496 378 522 q 349 548 300 548 q 250 548 221 522 q 192 496 192 458 q 192 421 221 395 q 250 369 300 369 q 349 369 378 395 q 407 421 407 458 z m 419 164 q 419 204 385 236 q 351 268 301 268 q 250 268 217 236 q 183 204 183 163 q 183 132 212 109 q 241 85 301 85 q 361 85 390 109 q 419 132 419 164 z"},"\\":{"x_min":0,"x_max":600,"ha":600,"o":"m 186 662 l 507 -26 q 509 -32 515 -51 q 518 -62 518 -68 q 518 -86 504 -99 q 490 -112 470 -112 q 451 -112 439 -104 q 428 -95 416 -69 l 95 620 q 83 646 83 658 q 83 677 98 691 q 113 706 133 706 q 151 706 162 697 q 173 688 186 662 z"},"e":{"x_min":0,"x_max":600,"ha":600,"o":"m 551 171 l 141 171 q 156 132 196 108 q 236 84 304 84 q 359 84 452 108 q 490 118 504 118 q 524 118 538 104 q 552 89 552 68 q 552 48 537 35 q 518 17 442 0 q 366 -16 296 -16 q 176 -16 104 52 q 32 120 32 219 q 32 324 110 390 q 188 457 290 457 q 351 457 402 435 q 453 414 478 389 q 513 353 536 299 q 551 262 551 213 z m 440 271 q 417 314 380 335 q 343 356 292 356 q 241 356 204 335 q 167 314 144 271 z"},"b":{"x_min":0,"x_max":600,"ha":600,"o":"m 174 633 l 174 409 q 210 433 248 445 q 286 457 325 457 q 429 457 501 385 q 573 313 573 211 q 573 114 504 49 q 436 -16 323 -16 q 283 -16 246 -6 q 208 4 174 24 l 174 0 l 57 0 q 21 0 5 14 q -10 28 -10 50 q -10 72 5 86 q 21 100 57 100 l 74 100 l 74 533 l 57 533 q 21 533 5 547 q -10 561 -10 583 q -10 605 5 619 q 21 633 57 633 z m 473 208 q 473 271 430 313 q 386 356 323 356 q 261 356 217 313 q 174 271 174 210 q 174 155 213 119 q 252 84 323 84 q 395 84 434 119 q 473 155 473 208 z"},"%":{"x_min":0,"x_max":600,"ha":600,"o":"m 377 486 q 377 427 336 386 q 294 345 236 345 q 177 345 136 386 q 94 427 94 486 q 94 544 136 586 q 177 627 236 627 q 294 627 336 586 q 377 545 377 486 z m 315 486 q 315 519 292 542 q 269 565 236 565 q 203 565 179 542 q 156 519 156 486 q 156 453 180 430 q 203 406 236 406 q 269 406 292 430 q 315 453 315 486 z m 495 337 l 126 217 q 112 213 106 213 q 95 213 86 222 q 77 231 77 246 q 77 256 84 264 q 89 271 107 276 l 476 396 q 490 400 496 400 q 508 400 516 391 q 525 381 525 368 q 525 357 518 349 q 513 343 495 337 z m 504 126 q 504 68 462 27 q 421 -15 362 -15 q 304 -15 262 27 q 221 68 221 126 q 221 185 262 227 q 304 268 362 268 q 421 268 462 227 q 504 186 504 126 z m 442 126 q 442 160 418 183 q 395 206 362 206 q 330 206 306 183 q 283 160 283 126 q 283 94 306 71 q 330 47 362 47 q 395 47 418 71 q 442 94 442 126 z"},"m":{"x_min":0,"x_max":600,"ha":600,"o":"m 146 443 l 146 415 q 170 439 190 448 q 209 457 235 457 q 257 457 279 446 q 300 436 321 414 q 347 436 373 446 q 400 457 428 457 q 483 457 518 427 q 564 388 564 324 l 564 100 q 595 100 610 86 q 625 72 625 50 q 625 28 610 14 q 595 0 559 0 l 464 0 l 464 316 q 464 339 456 348 q 447 356 430 356 q 414 356 399 348 q 381 335 355 302 l 355 100 q 387 100 402 86 q 417 72 417 50 q 417 28 402 14 q 387 0 351 0 l 255 0 l 255 316 q 255 338 247 347 q 238 356 221 356 q 204 356 187 345 q 169 334 146 302 l 146 100 q 177 100 192 86 q 208 72 208 50 q 208 28 192 14 q 177 0 141 0 l 50 0 q 14 0 -1 14 q -17 28 -17 50 q -17 72 -1 86 q 14 100 45 100 l 45 343 q 14 343 -1 357 q -17 372 -17 394 q -17 416 -1 429 q 14 443 50 443 z"},"#":{"x_min":0,"x_max":600,"ha":600,"o":"m 448 451 l 471 451 q 507 451 523 437 q 538 423 538 400 q 538 378 523 365 q 508 351 472 351 l 440 351 l 433 241 l 451 241 q 487 241 502 227 q 518 213 518 191 q 518 169 502 155 q 487 141 451 141 l 426 141 l 414 -31 q 414 -35 407 -65 q 402 -77 389 -85 q 376 -94 362 -94 q 342 -94 328 -79 q 313 -64 313 -42 q 313 -38 314 -23 l 326 141 l 251 141 l 240 -30 q 238 -56 236 -61 q 230 -76 218 -85 q 205 -94 189 -94 q 167 -94 153 -79 q 139 -64 139 -42 q 139 -36 140 -23 l 151 141 l 126 141 q 90 141 75 155 q 60 169 60 191 q 60 213 75 227 q 90 241 126 241 l 158 241 l 166 351 l 147 351 q 111 351 96 365 q 81 378 81 401 q 81 423 96 437 q 111 451 147 451 l 173 451 l 185 623 q 187 648 189 654 q 194 668 207 677 q 220 686 236 686 q 256 686 271 671 q 286 657 286 632 q 286 626 285 615 l 273 451 l 348 451 l 359 623 q 361 658 375 672 q 389 686 411 686 q 432 686 446 671 q 461 656 461 635 q 461 630 460 626 l 459 615 z m 340 351 l 266 351 l 259 241 l 333 241 z"},",":{"x_min":0,"x_max":600,"ha":600,"o":"m 276 135 l 410 135 l 266 -137 q 253 -161 234 -161 q 222 -161 213 -152 q 204 -144 204 -134 q 204 -126 207 -114 z"},"n":{"x_min":0,"x_max":600,"ha":600,"o":"m 199 443 l 199 410 q 226 433 259 445 q 292 457 331 457 q 419 457 471 401 q 512 357 512 286 l 512 100 q 544 100 559 86 q 574 72 574 50 q 574 28 559 14 q 543 0 507 0 l 417 0 q 381 0 365 14 q 350 28 350 50 q 350 72 365 86 q 380 100 412 100 l 412 289 q 412 322 395 337 q 372 356 326 356 q 291 356 265 343 q 239 330 199 286 l 199 100 q 237 100 249 93 q 272 78 272 50 q 272 28 257 14 q 242 0 206 0 l 92 0 q 56 0 40 14 q 25 28 25 50 q 25 78 48 93 q 60 100 99 100 l 99 343 q 67 343 52 357 q 37 372 37 394 q 37 416 52 429 q 67 443 104 443 z"},"h":{"x_min":0,"x_max":600,"ha":600,"o":"m 197 633 l 197 420 q 228 438 260 448 q 292 457 325 457 q 376 457 417 439 q 458 421 484 384 q 511 346 511 288 l 511 100 q 549 100 561 93 q 584 78 584 50 q 584 28 569 14 q 554 0 518 0 l 403 0 q 368 0 352 14 q 337 28 337 50 q 337 78 360 93 q 373 101 410 100 l 410 281 q 410 320 393 335 q 370 356 325 356 q 292 356 266 344 q 240 331 197 288 l 197 100 q 235 100 247 93 q 271 78 271 50 q 271 28 255 14 q 240 0 204 0 l 90 0 q 54 0 38 14 q 23 28 23 50 q 23 78 47 93 q 59 101 97 100 l 97 533 l 80 533 q 43 533 28 547 q 13 561 13 583 q 13 605 28 619 q 43 633 80 633 z"},"z":{"x_min":0,"x_max":600,"ha":600,"o":"m 246 100 l 422 100 q 423 128 437 142 q 451 156 472 156 q 494 156 508 140 q 522 125 522 89 l 522 0 l 86 0 l 86 83 l 350 343 l 197 343 l 197 333 q 197 298 183 282 q 169 267 146 267 q 124 267 110 282 q 96 298 96 333 l 97 443 l 511 443 l 511 361 z"},"B":{"x_min":0,"x_max":600,"ha":600,"o":"m 96 100 l 96 492 l 80 492 q 44 492 29 506 q 13 520 13 542 q 13 564 29 578 q 44 592 80 592 l 331 592 q 421 592 476 542 q 530 492 530 423 q 530 391 518 362 q 505 333 479 309 q 526 280 550 242 q 574 205 574 157 q 574 119 557 86 q 544 61 525 46 q 500 26 464 13 q 428 0 374 0 l 80 0 q 44 0 29 14 q 13 28 13 50 q 13 72 29 86 q 44 100 80 100 z m 196 346 l 306 346 q 365 346 404 376 q 430 396 430 426 q 430 452 405 472 q 380 492 326 492 l 196 492 z m 196 100 l 369 100 q 430 100 455 118 q 474 132 474 157 q 474 188 436 217 q 398 246 328 246 l 196 246 z"},"K":{"x_min":0,"x_max":600,"ha":600,"o":"m 196 211 l 196 100 l 232 100 q 268 100 283 86 q 299 72 299 50 q 299 28 283 14 q 268 0 232 0 l 80 0 q 44 0 29 14 q 13 28 13 50 q 13 72 29 86 q 44 100 80 100 l 96 100 l 96 492 l 80 492 q 44 492 29 506 q 13 520 13 542 q 13 564 29 578 q 44 592 80 592 l 232 592 q 268 592 283 578 q 299 564 299 542 q 299 520 283 506 q 268 492 232 492 l 196 492 l 196 343 l 374 496 q 358 507 352 517 q 346 527 346 541 q 346 564 362 578 q 377 592 413 592 l 515 592 q 551 592 567 578 q 582 564 582 542 q 582 520 567 506 q 551 492 519 492 l 339 334 q 389 306 433 247 q 478 188 512 100 l 539 100 q 574 100 590 86 q 605 72 605 50 q 605 28 590 14 q 575 0 539 0 l 448 0 q 417 75 379 143 q 349 198 322 223 q 295 248 257 263 z"},"R":{"x_min":0,"x_max":600,"ha":600,"o":"m 197 226 l 197 100 l 233 100 q 269 100 284 86 q 300 72 300 50 q 300 28 284 14 q 269 0 233 0 l 81 0 q 45 0 30 14 q 14 28 14 50 q 14 72 30 86 q 45 100 81 100 l 97 100 l 97 492 l 81 492 q 45 492 30 506 q 14 520 14 542 q 14 564 30 578 q 45 592 81 592 l 308 592 q 414 592 472 539 q 530 487 530 412 q 530 365 503 326 q 476 288 420 258 q 452 230 488 187 q 511 159 549 100 q 587 100 599 92 q 621 77 621 50 q 621 28 606 14 q 591 0 555 0 l 498 0 q 376 188 296 226 z m 197 326 l 275 326 q 318 326 353 339 q 398 357 414 376 q 430 396 430 415 q 430 443 400 468 q 370 492 312 492 l 197 492 z"},"T":{"x_min":0,"x_max":600,"ha":600,"o":"m 349 492 l 349 100 l 416 100 q 452 100 468 86 q 483 72 483 50 q 483 28 468 14 q 452 0 416 0 l 182 0 q 146 0 130 14 q 115 28 115 50 q 115 72 130 86 q 146 100 182 100 l 249 100 l 249 492 l 140 492 l 140 397 q 140 361 126 345 q 112 330 90 330 q 68 330 54 345 q 40 361 40 397 l 40 592 l 559 592 l 559 397 q 559 361 545 345 q 531 330 508 330 q 486 330 472 345 q 458 361 458 397 l 458 492 z"},"P":{"x_min":0,"x_max":600,"ha":600,"o":"m 242 203 l 242 100 l 343 100 q 379 100 395 86 q 410 72 410 50 q 410 28 395 14 q 379 0 343 0 l 126 0 q 90 0 75 14 q 60 28 60 50 q 60 72 75 86 q 91 100 126 100 l 142 100 l 142 492 l 126 492 q 90 492 75 506 q 60 520 60 542 q 60 564 75 578 q 90 592 126 592 l 357 592 q 458 592 518 536 q 577 481 577 401 q 577 357 557 318 q 542 289 507 260 q 471 232 434 218 q 397 203 337 203 z m 242 303 l 335 303 q 400 303 439 333 q 477 362 477 404 q 477 439 446 465 q 415 492 357 492 l 242 492 z"},"|":{"x_min":0,"x_max":600,"ha":600,"o":"m 351 536 l 351 -60 q 351 -111 348 -121 q 344 -136 331 -146 q 317 -156 301 -156 q 284 -156 270 -146 q 257 -136 253 -120 q 250 -111 250 -60 l 250 536 q 250 587 253 597 q 257 611 270 622 q 284 632 301 632 q 317 632 331 622 q 344 611 348 596 q 351 586 351 536 z"},"t":{"x_min":0,"x_max":600,"ha":600,"o":"m 275 343 l 275 143 q 275 110 289 100 q 309 84 362 84 q 438 84 503 117 q 528 129 542 129 q 562 129 576 115 q 591 100 591 79 q 591 60 575 45 q 551 22 481 3 q 410 -16 362 -16 q 269 -16 222 24 q 175 64 175 123 l 175 343 l 139 343 q 103 343 88 357 q 72 371 72 394 q 72 416 88 429 q 103 443 139 443 l 175 443 l 175 534 q 175 570 189 585 q 203 601 226 601 q 248 601 261 585 q 275 570 275 534 l 275 443 l 460 443 q 497 443 512 429 q 527 416 527 393 q 527 371 512 357 q 497 343 460 343 z"},"M":{"x_min":0,"x_max":600,"ha":600,"o":"m 144 398 l 144 100 l 180 100 q 216 100 231 86 q 247 72 247 50 q 247 28 231 14 q 216 0 180 0 l 48 0 q 12 0 -3 14 q -19 28 -19 50 q -19 72 -3 86 q 12 100 43 100 l 43 492 q 17 494 4 508 q -10 521 -10 542 q -10 564 6 578 q 21 592 57 592 l 167 592 l 303 291 l 437 592 l 548 592 q 584 592 599 578 q 615 564 615 542 q 615 521 601 508 q 587 494 562 492 l 562 100 q 593 100 608 86 q 624 72 624 50 q 624 28 608 14 q 593 0 557 0 l 425 0 q 389 0 374 14 q 358 28 358 50 q 358 72 374 86 q 389 100 425 100 l 461 100 l 461 398 l 347 141 l 260 141 z"},"g":{"x_min":0,"x_max":600,"ha":600,"o":"m 410 414 l 410 443 l 527 443 q 563 443 579 429 q 594 416 594 393 q 594 371 579 357 q 563 343 527 343 l 510 343 l 510 -21 q 510 -74 488 -113 q 466 -152 420 -181 q 374 -209 316 -209 l 203 -209 q 167 -209 152 -195 q 136 -181 136 -159 q 136 -137 152 -123 q 167 -109 203 -109 l 313 -109 q 359 -109 385 -84 q 410 -59 410 -21 l 410 28 q 377 6 343 -4 q 308 -15 272 -15 q 170 -15 101 53 q 32 121 32 221 q 32 322 101 390 q 170 458 272 458 q 310 458 344 447 q 379 436 410 414 z m 410 222 q 410 277 369 317 q 328 358 271 358 q 214 358 173 317 q 132 277 132 222 q 132 166 173 126 q 214 85 271 85 q 328 85 369 126 q 410 166 410 222 z"},"j":{"x_min":0,"x_max":600,"ha":600,"o":"m 401 633 l 401 527 l 281 527 l 281 633 z m 360 343 l 156 343 q 120 343 104 357 q 89 371 89 394 q 89 416 104 429 q 120 443 156 443 l 460 443 l 460 -21 q 460 -74 438 -113 q 416 -152 370 -181 q 324 -209 266 -209 l 153 -209 q 117 -209 101 -195 q 86 -181 86 -159 q 86 -137 101 -123 q 117 -109 153 -109 l 263 -109 q 309 -109 334 -84 q 360 -59 360 -21 z"},"i":{"x_min":0,"x_max":600,"ha":600,"o":"m 336 633 l 336 527 l 217 527 l 217 633 z m 350 443 l 350 100 l 470 100 q 506 100 521 86 q 537 72 537 50 q 537 28 521 14 q 506 0 470 0 l 129 0 q 93 0 78 14 q 62 28 62 50 q 62 72 78 86 q 93 100 129 100 l 250 100 l 250 343 l 169 343 q 133 343 118 357 q 102 371 102 394 q 102 416 117 429 q 133 443 169 443 z"},"y":{"x_min":0,"x_max":600,"ha":600,"o":"m 244 3 l 71 343 q 46 346 34 360 q 21 374 21 393 q 21 416 36 429 q 52 443 88 443 l 179 443 q 215 443 231 429 q 246 416 246 393 q 246 371 231 357 q 215 343 182 343 l 300 113 l 417 343 q 385 343 370 357 q 354 371 354 394 q 354 416 370 429 q 385 443 421 443 l 516 443 q 551 443 567 429 q 582 416 582 393 q 582 373 569 359 q 556 345 530 343 l 300 -109 q 338 -109 350 -116 q 373 -131 373 -159 q 373 -181 358 -195 q 342 -209 306 -209 l 88 -209 q 52 -209 36 -195 q 21 -181 21 -159 q 21 -137 36 -123 q 52 -109 88 -109 l 188 -109 z"},"@":{"x_min":0,"x_max":600,"ha":600,"o":"m 402 437 l 402 467 q 402 516 374 545 q 346 574 302 574 q 267 574 236 551 q 205 528 189 491 q 162 426 162 361 l 162 213 q 162 100 212 34 q 246 -10 305 -10 q 337 -10 364 -1 q 390 7 405 21 q 419 36 432 36 q 448 36 458 25 q 469 14 469 -2 q 469 -26 436 -50 q 387 -83 302 -83 q 238 -83 196 -54 q 142 -16 115 59 q 88 133 88 206 l 88 367 q 88 484 146 566 q 204 648 301 648 q 344 648 383 630 q 421 612 449 567 q 476 522 476 467 l 476 200 q 498 190 498 167 q 498 150 486 140 q 474 129 446 129 l 402 129 l 402 132 q 379 129 369 129 q 310 129 266 172 q 223 216 223 274 q 223 337 271 384 q 319 431 402 437 z m 402 361 q 351 356 323 331 q 296 306 296 273 q 296 246 319 225 q 341 205 378 205 q 386 205 402 206 z"},".":{"x_min":0,"x_max":600,"ha":600,"o":"m 376 50 q 376 22 356 3 q 336 -16 301 -16 q 266 -16 246 3 q 226 22 226 50 q 226 79 246 98 q 266 117 301 117 q 336 117 356 98 q 376 79 376 50 z"},"p":{"x_min":0,"x_max":600,"ha":600,"o":"m 176 55 l 176 -109 l 236 -109 q 272 -109 287 -123 q 303 -137 303 -159 q 303 -181 287 -195 q 272 -209 236 -209 l 59 -209 q 22 -209 7 -195 q -8 -181 -8 -159 q -8 -137 7 -123 q 23 -109 59 -109 l 76 -109 l 76 343 l 59 343 q 22 343 7 357 q -8 371 -8 394 q -8 416 7 429 q 22 443 59 443 l 176 443 l 176 409 q 211 433 249 445 q 286 457 326 457 q 428 457 500 387 q 573 317 573 228 q 573 128 487 64 q 416 10 327 10 q 288 10 250 21 q 213 33 176 55 z m 473 227 q 473 248 456 281 q 439 313 405 335 q 371 356 324 356 q 250 356 206 300 q 176 262 176 226 q 176 186 219 148 q 261 110 324 110 q 388 110 430 148 q 473 186 473 227 z"},"X":{"x_min":0,"x_max":600,"ha":600,"o":"m 366 302 l 533 100 q 562 100 577 86 q 592 72 592 50 q 592 28 577 14 q 562 0 525 0 l 413 0 q 377 0 362 14 q 346 28 346 50 q 346 71 360 85 q 375 99 403 100 l 302 224 l 201 100 q 229 99 243 85 q 257 71 257 50 q 257 28 241 14 q 226 0 190 0 l 78 0 q 42 0 26 14 q 11 28 11 50 q 11 72 26 86 q 41 100 70 100 l 236 303 l 78 492 q 49 493 34 507 q 20 521 20 542 q 20 564 35 578 q 51 592 87 592 l 179 592 q 215 592 231 578 q 246 564 246 542 q 246 525 236 512 q 230 503 208 492 l 301 380 l 393 492 q 371 503 364 512 q 354 525 354 542 q 354 564 370 578 q 385 592 421 592 l 513 592 q 549 592 565 578 q 580 564 580 542 q 580 521 565 506 q 550 492 522 492 z"},"*":{"x_min":0,"x_max":600,"ha":600,"o":"m 218 379 l 132 407 q 101 417 93 428 q 81 442 81 459 q 81 480 95 495 q 110 510 128 510 q 140 510 163 502 l 249 474 l 249 565 q 249 601 263 616 q 277 632 299 632 q 322 632 335 616 q 349 601 349 565 l 349 474 l 436 502 q 459 510 470 510 q 488 510 503 495 q 517 480 517 460 q 517 442 507 429 q 497 417 467 407 l 380 379 l 434 305 q 453 278 453 263 q 453 242 438 227 q 424 212 403 212 q 388 212 378 219 q 368 225 353 247 l 299 320 l 246 247 q 230 225 220 219 q 210 212 195 212 q 175 212 160 227 q 145 242 145 263 q 145 278 165 305 z"},"Y":{"x_min":0,"x_max":600,"ha":600,"o":"m 351 249 l 351 100 l 418 100 q 454 100 469 86 q 485 72 485 50 q 485 28 469 14 q 454 0 418 0 l 183 0 q 147 0 132 14 q 117 28 117 50 q 117 72 132 86 q 147 100 183 100 l 250 100 l 250 249 l 85 492 q 52 492 36 506 q 21 520 21 542 q 21 564 36 578 q 52 592 88 592 l 179 592 q 215 592 230 578 q 246 564 246 542 q 246 508 206 492 l 301 352 l 394 492 q 372 500 362 513 q 353 525 353 542 q 353 564 368 578 q 384 592 420 592 l 514 592 q 550 592 566 578 q 581 564 581 542 q 581 520 565 506 q 550 492 515 492 z"},"c":{"x_min":0,"x_max":600,"ha":600,"o":"m 456 425 q 474 442 493 442 q 515 442 529 427 q 542 412 542 376 l 542 312 q 542 275 529 260 q 515 245 492 245 q 472 245 458 257 q 447 266 441 293 q 436 320 413 333 q 374 356 312 356 q 241 356 198 315 q 156 273 156 210 q 156 151 197 117 q 238 83 333 83 q 396 83 435 96 q 458 104 479 123 q 500 142 518 142 q 538 142 553 126 q 568 111 568 91 q 568 58 522 28 q 455 -17 325 -17 q 208 -17 144 32 q 56 97 56 209 q 56 316 127 386 q 198 457 313 457 q 354 457 390 449 q 426 441 456 425 z"},"!":{"x_min":0,"x_max":600,"ha":600,"o":"m 375 534 l 347 232 q 345 208 331 196 q 317 183 297 183 q 276 183 263 196 q 249 208 247 232 l 219 534 q 217 557 217 564 q 217 602 240 625 q 263 648 297 648 q 331 648 354 625 q 377 602 377 566 q 377 559 375 534 z m 358 37 q 358 15 342 0 q 326 -15 298 -15 q 270 -15 253 0 q 237 15 237 37 q 237 58 253 73 q 269 87 298 87 q 327 87 343 73 q 358 58 358 37 z"},"/":{"x_min":0,"x_max":600,"ha":600,"o":"m 506 620 l 186 -71 q 173 -97 164 -105 q 151 -115 133 -115 q 112 -115 97 -101 q 83 -86 83 -67 q 83 -54 94 -29 l 416 662 q 428 688 438 696 q 451 706 468 706 q 489 706 503 692 q 518 677 518 659 q 518 646 506 620 z"},"[":{"x_min":0,"x_max":600,"ha":600,"o":"m 349 532 l 349 -56 l 410 -56 q 446 -56 461 -70 q 477 -83 477 -106 q 477 -128 461 -142 q 446 -156 410 -156 l 249 -156 l 249 632 l 409 632 q 445 632 461 618 q 476 604 476 582 q 476 560 461 546 q 445 532 409 532 z"},"6":{"x_min":0,"x_max":600,"ha":600,"o":"m 206 342 q 242 372 275 386 q 308 400 345 400 q 423 400 482 337 q 542 275 542 181 q 542 93 487 39 q 432 -15 337 -15 q 259 -15 208 22 q 157 59 131 135 q 105 211 105 305 q 105 417 157 491 q 208 566 277 607 q 347 648 424 648 q 485 648 519 624 q 541 608 541 583 q 541 561 526 546 q 511 531 491 531 q 479 531 457 543 q 444 550 432 550 q 384 550 333 523 q 281 496 244 439 q 218 400 206 342 z m 221 187 q 236 128 263 107 q 290 85 339 85 q 388 85 415 111 q 441 137 441 182 q 441 232 411 266 q 380 300 342 300 q 312 300 278 270 q 243 240 221 187 z"},"r":{"x_min":0,"x_max":600,"ha":600,"o":"m 279 443 l 279 381 q 342 426 379 441 q 415 457 447 457 q 496 457 542 420 q 573 396 573 371 q 573 349 558 334 q 543 319 522 319 q 503 319 483 338 q 462 356 446 356 q 425 356 384 330 q 342 304 279 251 l 279 100 l 422 100 q 458 100 473 86 q 489 72 489 50 q 489 28 473 14 q 458 0 422 0 l 120 0 q 83 0 68 14 q 53 28 53 50 q 53 72 68 86 q 83 100 120 100 l 179 100 l 179 343 l 143 343 q 107 343 92 357 q 76 371 76 394 q 76 416 92 429 q 107 443 143 443 z"},"2":{"x_min":0,"x_max":600,"ha":600,"o":"m 207 100 l 426 100 q 444 115 460 115 q 483 115 496 100 q 510 84 510 48 l 510 0 l 54 0 l 54 106 q 324 329 380 393 q 409 426 409 455 q 409 492 377 520 q 345 548 292 548 q 238 548 202 517 q 184 500 172 467 q 166 447 154 438 q 142 429 124 429 q 104 429 89 444 q 74 458 74 478 q 74 507 101 551 q 128 595 180 622 q 232 648 293 648 q 388 648 448 591 q 509 533 509 452 q 509 410 491 375 q 474 339 408 277 q 356 228 207 100 z"},"{":{"x_min":0,"x_max":600,"ha":600,"o":"m 320 243 q 338 223 344 204 q 351 185 351 143 l 351 -16 q 351 -36 358 -45 q 366 -53 386 -55 q 407 -57 420 -71 q 433 -85 433 -105 q 433 -127 418 -142 q 403 -156 380 -156 q 348 -156 317 -139 q 287 -122 265 -83 q 250 -57 250 -23 l 250 153 q 250 174 244 182 q 237 189 214 192 q 192 195 180 208 q 168 221 168 243 q 168 265 180 278 q 192 291 215 294 q 237 296 242 303 q 250 312 250 333 l 250 500 q 250 554 290 593 q 329 632 380 632 q 403 632 418 618 q 433 603 433 582 q 433 562 420 547 q 407 533 386 531 q 365 529 359 522 q 351 512 351 492 l 351 333 q 351 299 344 281 q 337 263 320 243 z"},"9":{"x_min":0,"x_max":600,"ha":600,"o":"m 441 263 q 403 230 372 217 q 341 204 306 204 q 226 204 165 268 q 105 333 105 428 q 105 503 146 564 q 203 648 306 648 q 380 648 435 604 q 490 560 516 476 q 542 393 542 303 q 542 149 423 57 q 332 -15 222 -15 q 162 -15 128 10 q 106 26 106 52 q 106 74 120 88 q 135 103 156 103 q 167 103 182 95 q 201 85 222 85 q 298 85 362 137 q 426 188 441 263 z m 427 420 q 411 490 379 519 q 348 548 307 548 q 265 548 235 515 q 205 483 205 429 q 205 373 235 338 q 265 304 304 304 q 372 304 427 420 z"}," ":{"x_min":0,"x_max":600,"ha":600,"o":""},"I":{"x_min":0,"x_max":600,"ha":600,"o":"m 350 492 l 350 100 l 451 100 q 487 100 503 86 q 518 72 518 50 q 518 28 503 14 q 487 0 451 0 l 149 0 q 113 0 97 14 q 82 28 82 50 q 82 72 97 86 q 113 100 149 100 l 250 100 l 250 492 l 149 492 q 113 492 97 506 q 82 520 82 542 q 82 564 97 578 q 113 592 149 592 l 451 592 q 487 592 503 578 q 518 564 518 542 q 518 520 503 506 q 487 492 451 492 z"},"H":{"x_min":0,"x_max":600,"ha":600,"o":"m 410 245 l 196 245 l 196 100 l 211 100 q 248 100 263 86 q 278 72 278 50 q 278 28 263 14 q 248 0 211 0 l 89 0 q 53 0 37 14 q 22 28 22 50 q 22 78 46 93 q 58 101 96 100 l 96 492 q 69 494 56 508 q 42 521 42 542 q 42 564 58 578 q 73 592 109 592 l 211 592 q 248 592 263 578 q 278 564 278 542 q 278 520 263 506 q 248 492 211 492 l 196 492 l 196 345 l 410 345 l 410 492 l 394 492 q 358 492 343 506 q 327 520 327 542 q 327 564 343 578 q 358 592 394 592 l 496 592 q 532 592 548 578 q 563 564 563 542 q 563 521 550 508 q 536 494 510 492 l 510 100 q 548 100 560 93 q 583 78 583 50 q 583 28 568 14 q 553 0 517 0 l 394 0 q 358 0 343 14 q 327 28 327 50 q 327 72 343 86 q 358 100 394 100 l 410 100 z"},"4":{"x_min":0,"x_max":600,"ha":600,"o":"m 447 632 l 447 240 q 479 240 494 226 q 509 212 509 190 q 509 168 493 154 q 478 140 447 140 l 447 100 q 479 100 494 86 q 509 72 509 50 q 509 28 493 14 q 478 0 442 0 l 308 0 q 271 0 256 14 q 241 28 241 50 q 241 72 256 86 q 271 100 308 100 l 347 100 l 347 140 l 75 140 l 75 224 l 314 632 z m 347 240 l 347 486 l 202 240 z"},"~":{"x_min":0,"x_max":600,"ha":600,"o":"m 489 356 q 510 356 525 341 q 540 327 540 306 q 540 285 518 259 q 484 221 462 205 q 429 180 391 180 q 363 180 335 194 q 307 208 265 248 q 224 288 212 288 q 206 288 201 284 q 190 277 166 250 q 142 224 132 218 q 122 212 112 212 q 92 212 76 228 q 61 243 61 263 q 61 292 112 340 q 163 388 211 388 q 238 388 267 374 q 295 360 341 314 q 365 291 376 284 q 384 280 390 280 q 396 280 402 284 q 414 292 441 324 q 458 345 468 350 q 477 356 489 356 z"},"D":{"x_min":0,"x_max":600,"ha":600,"o":"m 76 100 l 76 492 q 44 492 29 506 q 14 520 14 542 q 14 564 30 578 q 45 592 81 592 l 291 592 q 339 592 386 574 q 433 556 461 528 q 482 507 506 470 q 529 434 541 397 q 552 361 552 309 l 552 261 q 552 198 531 149 q 509 100 474 69 q 439 38 409 23 q 360 0 282 0 l 81 0 q 45 0 30 14 q 14 28 14 50 q 14 72 30 86 q 45 101 76 100 z m 176 100 l 283 100 q 342 100 373 117 q 412 140 432 174 q 452 209 452 264 l 452 312 q 452 359 434 395 q 406 450 370 471 q 335 492 282 492 l 176 492 z"},"^":{"x_min":0,"x_max":600,"ha":600,"o":"m 299 503 l 181 362 q 165 342 155 336 q 146 331 132 331 q 111 331 96 345 q 82 360 82 382 q 82 399 104 426 l 299 662 l 496 426 q 510 409 514 400 q 518 391 518 381 q 518 360 503 345 q 488 331 468 331 q 454 331 444 336 q 435 342 418 361 z"},"0":{"x_min":0,"x_max":600,"ha":600,"o":"m 519 372 l 519 262 q 519 164 462 75 q 406 -15 301 -15 q 240 -15 198 12 q 157 39 119 110 q 82 182 82 262 l 82 372 q 82 469 138 558 q 194 648 299 648 q 359 648 401 622 q 443 595 481 524 q 519 452 519 372 z m 418 372 q 418 453 373 514 q 347 548 300 548 q 254 548 226 511 q 182 455 182 372 l 182 262 q 182 180 228 119 q 253 85 301 85 q 346 85 375 123 q 418 179 418 262 z"},"F":{"x_min":0,"x_max":600,"ha":600,"o":"m 231 247 l 231 100 l 334 100 q 370 100 385 86 q 401 72 401 50 q 401 28 385 14 q 370 0 334 0 l 116 0 q 80 0 64 14 q 49 28 49 50 q 49 72 64 86 q 80 100 116 100 l 131 100 l 131 492 l 116 492 q 80 492 64 506 q 49 520 49 542 q 49 564 64 578 q 80 592 116 592 l 587 592 l 587 439 q 587 403 573 388 q 559 373 537 373 q 515 373 501 388 q 487 403 487 439 l 487 492 l 231 492 l 231 347 l 319 347 q 319 386 327 397 q 342 421 370 421 q 392 421 406 406 q 419 390 419 354 l 419 239 q 419 203 406 187 q 392 172 369 172 q 342 172 327 196 q 319 207 319 247 z"},"`":{"x_min":0,"x_max":600,"ha":600,"o":"m 266 654 l 375 565 q 396 549 396 534 q 396 520 386 511 q 376 501 363 501 q 352 501 335 515 l 225 604 q 205 620 205 635 q 205 649 215 658 q 224 667 238 667 q 249 667 266 654 z"},"k":{"x_min":0,"x_max":600,"ha":600,"o":"m 218 167 l 218 0 l 101 0 q 64 0 49 14 q 34 28 34 50 q 34 72 49 86 q 65 100 101 100 l 118 100 l 118 533 l 101 533 q 64 533 49 547 q 34 561 34 583 q 34 605 49 619 q 64 633 101 633 l 218 633 l 218 296 l 296 359 q 284 380 284 393 q 284 416 299 429 q 314 443 350 443 l 464 443 q 500 443 516 429 q 531 416 531 393 q 531 371 516 357 q 500 343 464 343 l 437 343 l 315 245 l 479 100 l 508 100 q 544 100 559 86 q 575 72 575 50 q 575 28 559 14 q 544 0 508 0 l 393 0 q 356 0 341 14 q 326 28 326 50 q 326 69 342 88 l 236 182 z"},"u":{"x_min":0,"x_max":600,"ha":600,"o":"m 513 443 l 513 100 q 544 100 560 86 q 575 72 575 50 q 575 28 559 14 q 544 0 508 0 l 413 0 l 413 23 q 370 3 331 -6 q 292 -16 256 -16 q 207 -16 171 5 q 135 25 114 62 q 99 88 99 128 l 99 343 l 82 343 q 45 343 30 357 q 15 371 15 394 q 15 416 30 429 q 45 443 82 443 l 199 443 l 199 146 q 199 114 214 99 q 229 84 261 84 q 292 84 326 96 q 361 108 413 139 l 413 343 l 376 343 q 340 343 325 357 q 310 371 310 394 q 310 416 325 429 q 340 443 376 443 z"},"]":{"x_min":0,"x_max":600,"ha":600,"o":"m 251 -56 l 251 532 l 190 532 q 154 532 139 546 q 124 560 124 582 q 124 604 139 618 q 154 632 190 632 l 351 632 l 351 -156 l 191 -156 q 155 -156 139 -142 q 124 -128 124 -106 q 124 -84 139 -70 q 155 -56 191 -56 z"},"U":{"x_min":0,"x_max":600,"ha":600,"o":"m 529 492 l 529 208 q 529 115 462 50 q 396 -15 302 -15 q 255 -15 215 2 q 174 18 141 50 q 109 82 91 116 q 73 150 73 208 l 73 492 q 41 492 26 506 q 11 520 11 542 q 11 564 26 578 q 41 592 78 592 l 209 592 q 245 592 260 578 q 276 564 276 542 q 276 520 260 506 q 245 492 209 492 l 173 492 l 173 199 q 173 154 210 120 q 248 85 300 85 q 335 85 366 102 q 397 119 417 150 q 429 170 429 199 l 429 492 l 393 492 q 356 492 341 506 q 326 520 326 542 q 326 564 341 578 q 356 592 393 592 l 524 592 q 560 592 575 578 q 591 564 591 542 q 591 520 576 506 q 561 492 529 492 z"},"o":{"x_min":0,"x_max":600,"ha":600,"o":"m 560 213 q 560 156 528 102 q 496 48 433 16 q 370 -16 301 -16 q 232 -16 170 15 q 107 47 75 101 q 42 155 42 214 q 42 274 75 332 q 108 390 171 423 q 233 457 301 457 q 369 457 432 423 q 496 389 528 331 q 560 274 560 213 z m 460 213 q 460 261 425 302 q 378 356 301 356 q 233 356 188 313 q 142 270 142 212 q 142 166 188 125 q 234 84 301 84 q 368 84 414 125 q 460 166 460 213 z"},"N":{"x_min":0,"x_max":600,"ha":600,"o":"m 175 403 l 175 100 l 211 100 q 247 100 262 86 q 278 72 278 50 q 278 28 262 14 q 247 0 211 0 l 80 0 q 43 0 28 14 q 13 28 13 50 q 13 72 28 86 q 43 100 75 100 l 75 492 l 59 492 q 23 492 8 506 q -8 520 -8 542 q -8 564 8 578 q 23 592 59 592 l 175 592 l 431 190 l 431 492 l 395 492 q 358 492 343 506 q 328 520 328 542 q 328 564 343 578 q 358 592 395 592 l 526 592 q 562 592 577 578 q 593 564 593 542 q 593 520 578 506 q 562 492 531 492 l 531 0 l 432 0 z"},"+":{"x_min":0,"x_max":600,"ha":600,"o":"m 350 234 l 350 67 q 350 31 336 15 q 323 0 300 0 q 278 0 264 15 q 250 31 250 67 l 250 234 l 107 234 q 71 234 55 248 q 40 262 40 285 q 40 307 55 321 q 71 335 107 334 l 250 334 l 250 501 q 250 537 264 553 q 278 568 300 568 q 323 568 337 553 q 351 538 351 501 l 350 334 l 493 334 q 529 334 545 321 q 560 307 560 285 q 560 262 545 248 q 529 234 493 234 z"},"G":{"x_min":0,"x_max":600,"ha":600,"o":"m 552 183 l 552 49 q 484 12 437 -1 q 389 -15 334 -15 q 257 -15 192 8 q 141 26 111 53 q 82 80 57 132 q 32 185 32 250 l 32 322 q 32 422 93 500 q 175 607 316 607 q 357 607 394 599 q 431 590 464 574 q 484 592 503 592 q 525 592 539 577 q 552 562 552 525 l 552 460 q 552 424 538 409 q 524 394 502 394 q 485 394 472 404 q 462 412 456 437 q 449 462 441 471 q 428 485 394 496 q 361 507 319 507 q 260 507 216 482 q 185 464 158 419 q 132 375 132 322 l 132 250 q 132 169 178 127 q 225 85 327 85 q 396 85 452 111 l 452 183 l 350 183 q 314 183 299 197 q 283 211 283 233 q 283 256 299 270 q 314 284 350 284 l 528 283 q 564 283 579 270 q 595 256 595 233 q 595 216 584 203 q 574 189 552 183 z"},"q":{"x_min":0,"x_max":600,"ha":600,"o":"m 532 343 l 532 -109 l 550 -109 q 585 -109 601 -123 q 616 -137 616 -159 q 616 -181 601 -195 q 586 -209 550 -209 l 373 -209 q 336 -209 321 -195 q 306 -181 306 -159 q 306 -137 321 -123 q 336 -109 373 -109 l 432 -109 l 432 55 q 396 33 358 21 q 320 10 281 10 q 192 10 121 64 q 35 128 35 228 q 35 317 107 387 q 180 457 283 457 q 322 457 360 445 q 397 433 432 409 l 432 443 l 550 443 q 585 443 601 429 q 616 416 616 393 q 616 371 601 357 q 586 343 550 343 z m 432 227 q 432 248 416 281 q 399 313 364 335 q 330 356 284 356 q 208 356 165 300 q 135 262 135 226 q 135 186 178 148 q 221 110 284 110 q 347 110 390 148 q 432 186 432 227 z"},"d":{"x_min":0,"x_max":600,"ha":600,"o":"m 530 633 l 530 100 l 547 100 q 583 100 598 86 q 614 72 614 50 q 614 28 598 14 q 583 0 547 0 l 430 0 l 430 24 q 396 4 358 -6 q 321 -16 281 -16 q 168 -16 99 49 q 30 114 30 211 q 30 313 103 385 q 175 457 279 457 q 318 457 355 445 q 393 433 430 409 l 430 533 l 413 533 q 376 533 361 547 q 346 561 346 583 q 346 605 361 619 q 376 633 413 633 z m 430 208 q 430 271 386 313 q 343 356 280 356 q 217 356 174 313 q 130 271 130 210 q 130 155 169 119 q 208 84 280 84 q 351 84 390 119 q 430 155 430 208 z"},"1":{"x_min":0,"x_max":600,"ha":600,"o":"m 351 648 l 351 100 l 452 100 q 488 100 504 86 q 519 72 519 50 q 519 28 504 14 q 488 0 452 0 l 150 0 q 114 0 98 14 q 83 28 83 50 q 83 72 98 86 q 114 100 150 100 l 251 100 l 251 518 l 162 494 q 140 488 129 488 q 110 488 96 503 q 83 519 83 541 q 83 561 93 572 q 103 583 136 592 z"},"5":{"x_min":0,"x_max":600,"ha":600,"o":"m 216 532 l 216 413 q 271 430 317 430 q 409 430 470 367 q 531 304 531 205 q 531 102 469 44 q 408 -15 280 -15 q 168 -15 103 28 q 64 52 64 84 q 64 104 79 119 q 94 134 115 134 q 132 134 152 117 q 172 101 194 95 q 225 85 274 85 q 365 85 398 115 q 431 144 431 204 q 431 263 399 296 q 367 330 317 330 q 263 330 193 295 q 178 287 166 287 q 145 287 130 302 q 116 318 116 343 l 116 632 l 422 632 q 458 632 473 618 q 489 604 489 582 q 489 560 473 546 q 458 532 422 532 z"}}}
